<svg width="10" height="11" viewBox="0 0 10 11" fill="none" xmlns="http://www.w3.org/2000/svg">
<path d="M0 9.7373V0.926758C0 0.609375 0.0782878 0.376628 0.234863 0.228516C0.391439 0.0761719 0.577637 0 0.793457 0C0.983887 0 1.17855 0.055013 1.37744 0.165039L8.77246 4.48779C9.03483 4.64014 9.2168 4.77767 9.31836 4.90039C9.42415 5.01888 9.47705 5.16276 9.47705 5.33203C9.47705 5.49707 9.42415 5.64095 9.31836 5.76367C9.2168 5.88639 9.03483 6.02393 8.77246 6.17627L1.37744 10.499C1.17855 10.609 0.983887 10.6641 0.793457 10.6641C0.577637 10.6641 0.391439 10.5879 0.234863 10.4355C0.0782878 10.2832 0 10.0505 0 9.7373ZM1.02197 9.28662C1.02197 9.34163 1.04313 9.38184 1.08545 9.40723C1.12777 9.42839 1.1722 9.42415 1.21875 9.39453L8.00439 5.43359C8.05094 5.4082 8.07422 5.37435 8.07422 5.33203C8.07422 5.28125 8.05094 5.2474 8.00439 5.23047L1.21875 1.26953C1.1722 1.23991 1.12777 1.23779 1.08545 1.26318C1.04313 1.28434 1.02197 1.32243 1.02197 1.37744V9.28662Z" fill="#5A5A72"/>
</svg>
